<?xml version="1.0" standalone="no"?>
<!DOCTYPE svg PUBLIC "-//W3C//DTD SVG 20010904//EN"
 "http://www.w3.org/TR/2001/REC-SVG-20010904/DTD/svg10.dtd">
<svg version="1.0" xmlns="http://www.w3.org/2000/svg"
 width="500.000000pt" height="205.000000pt" viewBox="0 0 500.000000 205.000000"
 preserveAspectRatio="xMidYMid meet">

<g transform="translate(0.000000,205.000000) scale(0.100000,-0.100000)"
fill="#000000" stroke="none">
<path d="M2693 1944 c-2 -6 1 -32 7 -58 7 -33 7 -97 0 -214 -16 -255 -18 -271
-47 -300 -13 -13 -21 -28 -16 -32 11 -10 173 -19 178 -10 3 4 -4 15 -15 25
-17 15 -20 31 -20 97 0 44 4 88 10 98 16 31 50 13 72 -39 28 -67 89 -143 147
-184 54 -39 78 -36 35 4 -32 29 -114 167 -114 191 0 9 19 29 42 45 65 44 82
74 86 154 5 88 -15 145 -69 193 -45 42 -33 39 -178 40 -73 1 -115 -3 -118 -10z
m237 -62 c40 -41 55 -103 41 -172 -13 -67 -37 -90 -95 -90 -47 0 -58 6 -75 39
-20 36 -5 193 21 226 27 35 71 33 108 -3z"/>
<path d="M1790 1934 c-14 -2 -44 -7 -67 -10 -23 -3 -52 -13 -65 -23 l-22 -18
26 -24 c27 -24 27 -25 42 -272 14 -227 14 -251 -1 -273 -9 -14 -14 -27 -11
-29 4 -5 119 12 147 21 10 3 7 11 -12 28 -23 22 -25 29 -24 107 2 78 4 84 24
87 11 2 27 -5 35 -14 7 -10 47 -52 88 -95 52 -52 86 -79 109 -84 18 -4 35 -4
39 0 4 3 -19 29 -51 57 -31 27 -69 70 -84 96 -26 44 -26 46 -8 56 64 37 99
103 100 187 0 56 -4 73 -30 114 -17 27 -45 58 -63 68 -32 19 -122 30 -172 21z
m128 -79 c55 -46 66 -179 18 -224 -57 -53 -122 -45 -139 19 -15 56 -4 186 18
210 25 27 67 25 103 -5z"/>
<path d="M2213 1933 c-27 -5 -27 -2 -7 -42 14 -29 15 -62 9 -264 -5 -168 -11
-240 -21 -261 -11 -24 -12 -31 -2 -38 19 -12 232 -10 265 3 57 21 113 93 113
144 0 32 -31 93 -59 119 -28 25 -27 40 7 83 23 31 27 46 27 97 0 117 -66 166
-220 164 -49 0 -100 -3 -112 -5z m208 -55 c29 -16 40 -30 45 -55 16 -87 -33
-163 -105 -163 -27 0 -43 5 -49 17 -11 19 -3 180 10 206 12 23 52 22 99 -5z
m-16 -272 c65 -28 93 -114 61 -189 -20 -48 -50 -70 -96 -70 -66 0 -70 9 -70
149 l0 124 35 0 c20 0 51 -6 70 -14z"/>
<path d="M1351 1858 c-6 -24 -40 -161 -76 -305 -35 -145 -69 -272 -75 -282
-16 -30 -12 -43 13 -39 20 3 23 10 30 88 4 48 13 90 21 98 14 15 172 46 186
37 17 -10 43 -115 36 -146 l-6 -32 62 7 c34 3 66 10 71 15 5 5 -3 27 -18 51
-37 59 -59 111 -126 305 -66 189 -89 245 -99 245 -4 0 -12 -19 -19 -42z m39
-258 c19 -53 29 -95 24 -99 -5 -5 -33 -11 -62 -15 -66 -8 -70 -1 -47 101 19
85 32 116 44 108 5 -2 23 -45 41 -95z"/>
<path d="M3249 1876 c8 -9 15 -29 17 -44 5 -39 -14 -493 -22 -519 -7 -25 14
-39 75 -49 l42 -7 -12 29 c-16 42 -2 507 17 553 8 19 13 36 11 38 -2 2 -35 6
-73 10 -64 6 -68 5 -55 -11z"/>
<path d="M3944 1657 c-1 -94 -9 -239 -19 -320 -9 -82 -15 -151 -12 -153 3 -3
26 -12 52 -20 l47 -14 -7 37 c-4 21 -4 88 0 150 8 130 3 125 115 94 49 -13 66
-23 68 -37 3 -21 -23 -225 -34 -261 -5 -19 0 -23 35 -34 23 -7 43 -10 45 -8 3
2 10 63 16 134 6 72 15 182 21 245 5 63 14 143 20 177 14 77 8 93 -30 93 -19
0 -35 8 -45 22 -23 32 -30 15 -16 -37 12 -43 8 -214 -7 -251 -7 -19 -23 -18
-104 7 -65 20 -69 23 -69 51 0 67 23 225 36 245 16 26 12 29 -41 38 -22 4 -47
9 -55 11 -13 3 -15 -21 -16 -169z"/>
<path d="M830 1809 c-41 -5 -89 -7 -106 -4 -59 10 -69 -12 -89 -178 -9 -82
-14 -151 -11 -154 6 -7 7 -4 36 92 31 106 61 159 93 163 44 5 56 -27 67 -189
6 -79 15 -193 19 -254 7 -85 6 -116 -4 -137 -16 -33 -11 -34 63 -17 78 18 77
17 58 37 -8 10 -18 32 -21 48 -10 58 -36 496 -30 514 22 68 121 -5 176 -129
10 -24 22 -42 25 -39 4 5 -60 230 -72 249 -6 11 -101 10 -204 -2z"/>
<path d="M3645 1800 c-30 -6 -51 -20 -86 -58 -57 -62 -69 -103 -72 -253 -2
-110 -1 -118 28 -175 26 -51 37 -63 87 -87 44 -22 72 -29 125 -30 l68 -2 7
110 c3 61 9 127 12 147 7 42 6 43 -54 52 l-45 6 4 -119 c3 -112 2 -120 -19
-141 -16 -16 -29 -20 -48 -15 -85 19 -100 141 -56 432 5 32 46 76 83 88 37 11
121 -52 121 -91 0 -34 20 -19 35 27 16 47 16 51 0 69 -30 33 -120 52 -190 40z
m143 -461 l-3 -24 -13 23 c-7 12 -10 27 -6 33 10 17 26 -6 22 -32z"/>
<path d="M4465 1680 c-4 -6 -18 -52 -31 -102 -14 -50 -34 -107 -46 -126 -13
-22 -17 -37 -11 -43 7 -7 18 4 32 32 12 23 41 66 64 96 36 46 46 53 72 51 46
-5 51 -33 36 -216 -18 -222 -40 -383 -58 -411 -18 -28 -15 -31 65 -61 68 -26
76 -25 56 5 -13 21 -16 40 -11 93 47 508 54 552 86 552 10 0 25 -8 34 -18 24
-27 67 -125 93 -216 l24 -81 -5 55 c-2 30 -8 104 -11 163 -5 78 -11 113 -23
127 -10 11 -60 28 -131 45 -63 16 -139 36 -169 47 -64 21 -58 21 -66 8z"/>
<path d="M310 1649 c-77 -31 -125 -126 -118 -232 8 -118 51 -165 178 -194 123
-27 140 -34 156 -59 50 -76 -55 -194 -151 -170 -14 4 -43 22 -65 42 l-39 35
-10 -38 c-6 -21 -11 -48 -11 -60 0 -21 4 -23 58 -23 202 0 359 161 282 288
-26 43 -68 67 -143 82 -149 29 -168 46 -175 153 -4 68 -3 75 23 105 45 53 101
43 166 -31 l36 -41 6 64 c5 41 3 68 -4 76 -14 17 -150 18 -189 3z"/>
<path d="M1395 1084 c-113 -27 -248 -67 -404 -120 -9 -3 -6 -10 12 -24 54 -42
59 -78 69 -419 8 -321 6 -356 -28 -406 -23 -33 -18 -44 19 -35 169 40 276 83
240 97 -7 3 -23 13 -35 22 -21 18 -22 26 -26 229 l-4 210 53 17 c85 26 189 31
227 11 53 -27 55 -24 49 70 -2 47 -7 88 -11 91 -3 3 -18 -8 -33 -24 -25 -26
-149 -78 -260 -108 -28 -8 -33 8 -35 126 -2 83 0 99 21 136 29 50 107 91 140
73 11 -5 30 -10 42 -10 35 0 111 -55 147 -105 31 -44 52 -51 52 -19 0 22 -69
197 -83 210 -9 8 -51 1 -152 -22z"/>
<path d="M1937 1092 c-21 -23 -68 -126 -127 -282 -63 -163 -206 -495 -225
-523 -32 -45 -5 -60 63 -36 30 10 31 12 25 57 -3 33 1 65 16 109 12 34 21 69
21 76 0 34 40 51 158 65 193 23 173 30 203 -63 33 -96 34 -114 12 -160 -9 -19
-15 -37 -12 -39 2 -3 55 -2 118 1 124 7 136 14 103 60 -25 36 -94 197 -187
438 -89 232 -109 276 -133 298 -18 16 -20 16 -35 -1z m-8 -259 c10 -21 30 -70
44 -110 20 -54 23 -74 14 -81 -15 -12 -164 -32 -184 -25 -22 9 -12 62 32 166
43 101 62 111 94 50z"/>
<path d="M2680 1099 c-47 -4 -106 -5 -132 -2 -57 7 -71 -12 -44 -57 18 -32 21
-118 6 -220 -5 -36 -10 -120 -11 -187 -1 -153 -17 -218 -61 -255 -22 -17 -29
-30 -23 -36 15 -14 273 -24 281 -10 4 6 -7 21 -25 35 l-31 24 0 119 c0 134 4
150 34 150 32 0 62 -25 93 -78 28 -49 109 -149 153 -189 52 -47 150 -105 167
-99 13 6 2 22 -59 84 -94 95 -174 222 -159 250 6 11 25 22 43 26 45 8 107 61
129 110 42 93 11 221 -69 284 -79 63 -107 68 -292 51z m168 -67 c96 -48 109
-220 21 -284 -34 -25 -94 -33 -147 -19 -63 17 -76 54 -61 173 13 107 16 117
52 139 37 23 78 20 135 -9z"/>
<path d="M3382 1013 c27 -31 27 -48 3 -184 -53 -305 -97 -476 -124 -493 -6 -4
-11 -11 -11 -15 0 -10 49 -33 59 -26 5 2 22 0 40 -5 36 -10 38 -7 11 27 -14
18 -20 41 -20 73 0 63 66 460 79 473 18 18 39 -12 46 -66 8 -68 64 -427 77
-496 5 -29 14 -49 18 -45 5 5 22 61 39 124 33 126 117 369 132 385 6 6 14 4
23 -5 11 -11 17 -78 25 -270 l12 -255 -28 -22 -27 -22 37 -16 c20 -8 40 -15
43 -15 4 0 38 -14 76 -32 78 -35 103 -30 67 16 -32 41 -49 110 -49 205 0 47
-5 170 -11 273 -12 183 -11 187 10 223 11 20 21 38 21 40 0 2 -32 14 -71 25
-53 16 -74 19 -84 10 -15 -12 -96 -199 -116 -268 -14 -47 -29 -65 -46 -54 -6
4 -25 90 -42 191 -17 101 -36 189 -42 197 -13 16 -101 44 -137 44 -23 0 -24
-1 -10 -17z"/>
</g>
</svg>
